<svg width="500" height="500" viewBox="0 0 500 500" fill="none" xmlns="http://www.w3.org/2000/svg">
<line x1="5" y1="-5" x2="396.3" y2="-5" transform="matrix(-0.739812 0.672814 -0.682892 -0.73052 299.886 2)" stroke="black" stroke-width="10" stroke-linecap="round"/>
<line x1="300" y1="10" x2="300" y2="51" stroke="black" stroke-width="10" stroke-linecap="round"/>
<line x1="5" y1="-5" x2="365.313" y2="-5" transform="matrix(-0.793563 0.608487 -0.61901 -0.785383 299.886 44.6838)" stroke="black" stroke-width="10" stroke-linecap="round"/>
<line x1="245.215" y1="178.499" x2="9.49935" y2="272.785" stroke="black" stroke-width="10" stroke-linecap="round"/>
<line x1="5" y1="-5" x2="220.977" y2="-5" transform="matrix(-0.935239 0.354018 -0.357981 -0.933729 231.451 177)" stroke="black" stroke-width="10" stroke-linecap="round"/>
<line x1="246.626" y1="171.349" x2="54.349" y2="237.113" stroke="black" stroke-width="10" stroke-linecap="round"/>
<line x1="5" y1="-5" x2="338.134" y2="-5" transform="matrix(-0.708945 0.705264 -0.716813 -0.697266 246.313 165)" stroke="black" stroke-width="10" stroke-linecap="round"/>
<line x1="5" y1="-5" x2="316.348" y2="-5" transform="matrix(-0.763065 0.646321 -0.658631 -0.752466 248.259 198.306)" stroke="black" stroke-width="10" stroke-linecap="round"/>
<line x1="0.5" y1="-0.5" x2="294.346" y2="-0.5" transform="matrix(-0.762696 0.646757 -0.659063 -0.752088 248.259 198.306)" stroke="black" stroke-linecap="round"/>
<line x1="5" y1="-5" x2="38.1127" y2="-5" transform="matrix(-0.0225698 -0.999745 0.999738 -0.022874 253.124 209.082)" stroke="black" stroke-width="10" stroke-linecap="round"/>
<line x1="5" y1="-5" x2="258.172" y2="-5" transform="matrix(-0.49278 0.870154 -0.749339 -0.662186 286.237 261)" stroke="black" stroke-width="10" stroke-linecap="round"/>
<line x1="5" y1="-5" x2="275.74" y2="-5" transform="matrix(-0.53038 0.84776 -0.715555 -0.698556 320.659 240)" stroke="black" stroke-width="10" stroke-linecap="round"/>
<line x1="5" y1="-5" x2="358.147" y2="-5" transform="matrix(-0.920976 0.38962 -0.374005 -0.927427 491 345.319)" stroke="black" stroke-width="10" stroke-linecap="round"/>
<line x1="5" y1="-5" x2="334.203" y2="-5" transform="matrix(-0.89106 0.453885 -0.476984 -0.878912 491 311.573)" stroke="black" stroke-width="10" stroke-linecap="round"/>
<line x1="488.866" y1="318.977" x2="488.982" y2="350.982" stroke="black" stroke-width="10" stroke-linecap="round"/>
<line x1="484.25" y1="321.737" x2="485.737" y2="350.75" stroke="black" stroke-width="10" stroke-linecap="round"/>
<line x1="5" y1="-5" x2="535.697" y2="-5" transform="matrix(-0.900612 0.434624 -0.444834 -0.895613 490.008 170)" stroke="black" stroke-width="10" stroke-linecap="round"/>
<line x1="489" y1="176" x2="489" y2="134" stroke="black" stroke-width="10" stroke-linecap="round"/>
<line x1="5" y1="-5" x2="555.725" y2="-5" transform="matrix(-0.868444 0.495787 -0.506589 -0.862188 490.008 127)" stroke="black" stroke-width="10" stroke-linecap="round"/>
<line x1="5" y1="-5" x2="505.974" y2="-5" transform="matrix(-0.877555 0.479477 -0.490151 -0.871637 490.008 127)" stroke="black" stroke-width="10" stroke-linecap="round"/>
<line x1="483.665" y1="176.674" x2="29.6744" y2="395.335" stroke="black" stroke-width="10" stroke-linecap="round"/>
<line x1="487.711" y1="163.69" x2="35.6905" y2="385.289" stroke="black" stroke-width="10" stroke-linecap="round"/>
<path d="M394 381C395.381 381 397.519 380.789 398.802 380.364C400.181 379.906 401.685 379.514 402.968 378.77C404.253 378.026 405.53 377.389 406.814 376.855C408.096 376.321 409.376 375.686 411.457 374.995C412.904 374.515 414.183 374.091 415.785 373.665C418.842 372.853 422.835 370.691 424.119 370.052C425.63 369.298 427.001 368.248 428.285 367.5C429.726 366.66 431.058 365.167 432.451 364.098C433.672 363.161 435.013 362.608 436.296 362.13C437.71 361.603 439.179 361.333 440.728 360.959C442.054 360.64 443.979 360.267 446.441 359.738C448.129 359.374 449.645 359.1 451.038 358.674C452.331 358.279 453.6 357.824 454.883 357.081C456.217 356.309 457.445 355.17 458.729 354.21C459.962 353.288 461.291 352.51 462.574 351.976C463.857 351.442 465.136 350.807 466.42 350.381C467.799 349.923 469.514 349.32 470.906 348.786C472.203 348.288 473.468 347.617 474.752 346.874C475.391 346.45 475.93 345.917 476.303 345.281C476.465 344.96 476.571 344.644 477 344" stroke="black" stroke-width="18" stroke-linecap="round"/>
<path d="M385 388C384.365 388.211 383.092 389.061 381.815 389.648C380.494 390.256 379.264 390.766 377.934 390.98C376.148 391.268 374.798 392.153 373.52 392.683C372.323 393.18 370.97 393.322 369.692 394.014C368.491 394.663 367.141 395.13 365.864 395.665C364.587 396.2 363.313 396.836 362.035 397.58C360.756 398.325 359.485 398.752 358.207 399.444C357.007 400.094 355.657 400.561 354.379 401.096C353.102 401.63 351.828 402.266 350.551 402.746C349.19 403.256 348 403.864 346.723 404.82C345.578 405.677 344.172 406.1 342.894 406.526C341.582 406.964 340.344 407.697 339.066 408.176C337.705 408.686 336.516 409.505 335.238 410.04C334.917 410.147 334.601 410.252 334.281 410.36C333.96 410.467 333.644 410.572 333 411" stroke="black" stroke-width="18" stroke-linecap="round"/>
<path d="M293.309 275.694C293.082 275.408 292.852 274.833 292.453 274.255C292.251 273.962 291.715 274.249 291.424 274.537C291.134 274.824 291.02 275.253 291.019 275.259C290.664 276.6 292.615 272.527 293.706 271.083C294.731 269.727 296.395 269.35 297.771 268.413C299.147 267.477 300.518 266.036 301.894 264.88C303.27 263.725 304.301 263.002 304.646 263C306.04 262.991 302.937 265.88 301.846 267.466C300.648 269.206 299.501 270.64 298.353 272.226C296.986 274.115 295.721 275.4 294.915 276.914C294.08 278.485 293.199 280.013 292.111 281.889C290.555 284.573 288.739 286.642 286.844 288.957C285.588 290.492 284.382 291.843 283.291 293.429C282.141 295.101 281.516 296.889 280.599 298.694C279.574 300.708 278.767 302.514 277.85 304.248C276.932 305.981 276.018 307.707 275.044 309.369C274.129 310.931 273.043 312.467 271.723 313.841C270.459 315.157 269.607 316.942 268.572 318.528C267.38 320.356 266.054 322.42 265.079 324.153C264.023 326.033 262.961 327.613 261.815 329.346C260.696 331.038 259.298 332.953 258.549 334.538C257.734 336.264 256.432 337.565 254.888 339.298C253.461 340.9 252.309 342.325 251.335 343.987C250.275 345.795 248.646 347.518 247.897 349.251C247.122 351.046 246.124 352.711 245.207 354.444C244.302 356.152 242.805 357.185 241.485 358.771C240.279 360.221 239.252 361.798 238.391 363.531C237.614 365.096 236.73 366.558 235.929 368.291C235.097 370.092 234.098 371.751 232.838 372.694C231.469 373.72 231.002 375.217 231 375.58C230.99 377.681 233.85 371.344 235.634 368.739C237.251 366.377 238.895 364.126 239.817 362.246C240.759 360.327 241.65 358.786 242.508 356.982C243.691 354.492 244.97 352.295 246.401 350.203C247.456 348.66 248.062 346.67 249.607 344.435C251.185 342.151 252.069 340.465 253.957 338.234C256.62 335.087 257.91 333.255 259.286 331.235C260.397 329.603 261.463 328.063 262.722 326.042C264.619 322.999 267.992 319.123 268.852 317.242C269.587 315.638 269.826 313.783 270.57 312.05C271.29 310.373 271.888 308.59 272.689 306.786C273.615 304.697 274.52 302.965 275.664 301.017C277.475 297.935 278.644 296.474 279.618 294.741C280.674 292.861 281.736 291.281 282.995 289.26C284.049 287.57 285.172 286.088 286.375 284.355C287.485 282.755 288.265 280.895 289.182 279.162C290.1 277.429 290.9 276.274 291.472 275.627C291.704 275.266 291.818 274.837 292.278 274.396" stroke="black" stroke-width="10" stroke-linecap="round"/>
<path d="M364.646 219.323C363.483 220.042 360.855 221.48 358.367 222.927C355.25 224.739 353.247 225.959 350.98 227.258C349.495 228.11 348.416 228.995 348.047 229.212C346.472 230.137 351.913 227.847 353.815 227.05C356.319 226.001 358.055 224.815 359.885 223.876C362.275 222.648 362.447 220.77 362.816 220.265C364.051 218.574 357.204 221.914 354.782 222.929C351.643 224.246 349.008 225.093 347.102 225.818C346.241 226.146 345.344 226.539 344.831 226.758C343.108 227.492 347.674 223.23 349.282 221.855C350.977 220.406 352.79 219.618 354.547 218.892C356.359 218.145 358.055 216.586 359.813 215.07C361.435 213.671 363.32 212.688 365.078 211.962C366.957 211.186 369.024 210.375 370.782 209.725C372.838 208.965 375.018 207.49 376.997 206.334C379.084 205.114 380.871 204.311 382.628 202.943C384.319 201.625 386.136 200.275 387.966 198.828C390.192 197.068 391.84 195.796 393.67 194.64C395.656 193.384 397.544 192.764 399.373 191.967C401.679 190.963 403.976 190.018 406.319 189.009C408.72 187.975 410.707 186.7 412.464 185.903C414.459 184.999 416.7 183.668 418.242 182.224C419.62 180.934 421.676 180.203 423.433 179.047C425.231 177.863 427.38 176.886 429.137 175.941C430.956 174.964 432.934 173.421 435.205 172.117C437.084 171.038 438.787 169.808 440.545 169.083C442.3 168.358 444.052 167.496 445.81 166.558C447.461 165.677 449.318 165.33 451.075 164.321C452.834 163.31 454.583 162.159 456.268 161.144C457.903 160.158 459.409 158.98 461.022 158.181C464.883 156.268 461.901 169.938 461.906 179.222C461.907 181.209 461.471 181.633 461.105 181.925C459.573 183.147 457.233 183.227 455.476 184.164C453.824 185.046 451.968 185.678 450.21 186.404C448.455 187.128 446.703 188.277 444.945 189.074C443.129 189.898 441.148 190.59 439.241 191.24C437.352 191.883 435.444 192.755 433.538 193.693C431.857 194.52 430.03 194.921 427.908 195.93C425.838 196.915 423.887 198.239 422.13 199.036C420.066 199.972 418.183 201.704 416.426 202.86C414.567 204.083 412.479 205.169 410.722 206.037C408.758 207.008 407.214 208.201 405.457 209.286C403.818 210.298 401.949 210.947 399.099 212.244C397.18 213.117 395.368 214.117 393.101 215.061C390.581 216.112 388.786 216.577 386.665 217.515C384.888 218.301 382.793 218.743 380.886 219.321C379.116 219.858 376.799 220.476 374.744 221.413C373.04 222.191 371.236 222.641 369.406 223.579C367.223 224.698 364.804 225.959 362.533 227.044C360.732 227.905 358.95 228.991 357.193 229.788C355.377 230.611 353.685 231.304 351.564 231.882C349.71 232.387 347.981 233.036 345.276 232.969C344.713 232.955 344.612 232.326 344.754 231.819C345.498 229.177 348.403 227.847 350.524 226.403C352.571 225.009 356.871 223.377 359.446 222.286C361.585 221.38 364.189 220.198 366.394 218.895C368.14 217.862 369.902 217.019 372.023 215.863C373.927 214.825 375.606 213.554 377.363 212.398C379.12 211.241 381.161 210.375 383.067 209.725C384.956 209.082 386.575 207.924 388.769 206.767C391.079 205.549 393.156 204.459 395.278 203.302C397.289 202.206 399.299 200.994 401.056 199.549C402.619 198.264 404.564 197.095 406.394 195.867C408.562 194.412 410.268 193.197 412.025 192.112C413.664 191.1 415.533 190.165 417.29 189.08C418.929 188.069 420.798 187.419 422.628 186.41C424.687 185.274 426.502 184.535 428.623 183.378C430.635 182.282 432.934 181.07 434.841 179.985C436.585 178.992 439.077 178.757 441.056 177.748C443.21 176.649 444.93 175.725 446.687 174.787C448.339 173.906 450.195 173.273 451.952 172.405C453.917 171.434 455.171 169.956 456.779 168.652C457.188 168.32 457.654 168.076 457.95 168.143C459.638 168.526 457.812 172.104 456.862 173.839C455.905 175.587 455.329 178.02 454.085 179.759C452.949 181.348 449.923 180.775 448.017 181.206C446.211 181.614 444.509 182.36 442.387 183.082C440.253 183.807 438.805 184.959 436.684 185.968C434.725 186.9 433.101 187.991 431.271 189C429.212 190.136 427.397 190.876 425.64 191.673C423.645 192.577 421.693 193.622 419.936 194.271C417.88 195.032 415.989 196.506 414.232 197.663C412.434 198.846 410.285 199.824 408.528 201.128C405.651 203.263 401.071 205.602 398.878 207.118C396.808 208.548 394.929 209.5 393.172 210.297C391.176 211.202 389.225 212.532 387.395 213.4C385.143 214.47 383.521 215.564 381.764 216.649C380.013 217.73 377.528 218.596 375.621 219.681C373.947 220.634 372.113 221.342 370.356 221.991C368.3 222.752 366.409 223.941 364.58 224.59C362.39 225.368 360.705 226.106 358.948 227.115C357.123 228.164 355.44 229.424 353.319 230.58C351.415 231.618 349.736 232.603 347.979 233.612C346.22 234.623 344.471 235.488 342.714 236.285C340.832 237.138 339.206 238.234 337.449 238.883C335.577 239.575 333.941 240.399 332.184 241.337C330.532 242.218 328.676 242.851 326.919 243.936C325.327 244.918 323.411 245.164 321.581 246.461C319.756 247.755 317.707 248.048 315.95 248.774C314.241 249.479 312.442 250.214 310.685 251.011C308.868 251.835 307.177 252.813 305.419 253.61C303.603 254.433 301.912 255.411 300.154 256.208C298.272 257.062 296.646 258.158 294.889 259.095C293.189 260.003 291.381 260.756 289.624 261.694C287.924 262.601 286.116 263.355 284.359 264.005C282.419 264.722 280.851 265.954 279.021 266.892C277.006 267.925 275.147 268.838 273.39 269.635C271.508 270.489 269.882 271.584 268.125 272.522C266.473 273.403 264.617 273.75 262.86 274.4C260.92 275.117 259.352 276.349 257.594 276.999C255.603 277.735 253.648 278.8 251.891 279.526C250.135 280.251 248.383 281.113 246.625 282.122C244.866 283.133 243.118 284.284 241.36 285.228C239.541 286.206 237.852 287.463 236.168 288.691C234.584 289.845 232.736 291.214 230.83 292.158C229.044 293.043 227.322 293.96 225.565 294.757C223.749 295.58 221.767 296.558 219.861 297.284C218.133 297.942 216.353 298.438 214.232 299.447C212.109 300.457 209.772 301.037 208.015 301.615C206.257 302.193 204.507 302.77 202.749 303.707C201.049 304.615 199.241 305.368 197.484 306.306C195.784 307.213 193.976 307.967 192.219 308.976C190.46 309.986 188.711 310.852 186.954 311.649C185.138 312.472 183.446 313.45 181.689 314.535C180.05 315.547 178.181 316.196 176.424 317.206C174.598 318.254 172.626 319.514 170.356 320.671C168.423 321.655 166.773 322.693 165.016 323.703C163.19 324.751 161.508 326.011 159.751 326.808C157.935 327.632 156.243 328.61 154.486 329.407C152.603 330.26 150.978 331.642 149.221 332.798C147.463 333.955 145.713 335.107 143.955 336.192C143.08 336.553 142.198 336.844 141.323 337.203C140.882 337.42 140.448 337.705 140 338" stroke="black" stroke-width="10" stroke-linecap="round"/>
<path d="M337.247 229.77C336.807 230.624 334.743 232.054 331.339 233.913C329.253 235.053 327.195 235.635 325.192 236.208C322.435 236.997 319.642 237.927 318.752 237.857C317.207 237.734 322.142 235.643 323.993 234.782C326.501 233.616 330.267 232.071 332.8 231.06C334.533 230.368 336.35 229.632 338.128 228.486C339.907 227.339 341.678 226.197 343.457 225.122C344.271 224.629 345.235 224.334 345.681 224.117C347.312 223.325 342.291 226.755 339.627 228.546C335.629 231.233 331.2 233.05 328.744 234.417C326.753 235.527 324.824 236.347 322.972 237.137C320.817 238.057 318.758 239.207 315.355 240.785C313.315 241.731 311.21 242.505 307.807 244.147C305.806 245.112 303.955 245.51 302.177 246.796C300.528 247.988 298.627 248.945 296.48 249.946C294.565 250.838 292.854 252.088 291.076 253.024C289.3 253.959 287.526 254.527 285.528 255.884C282.789 257.744 280.422 258.675 278.644 259.465C276.739 260.311 274.801 261.397 272.43 262.754C270.229 264.013 268.434 265.115 266.655 266.191C264.997 267.194 263.105 268.121 261.254 269.267C259.078 270.614 256.889 271.556 255.111 272.631C253.333 273.419 251.561 274.845 249.783 275.781C249.336 275.995 248.897 276.279 248 277" stroke="black" stroke-width="10" stroke-linecap="round"/>
<path d="M217.697 214.975C217.372 215.357 216.721 216.124 216.203 216.81C215.567 217.653 214.927 218.428 214.571 219.088C214.188 219.797 213.566 220.512 212.886 221.227C212.625 221.503 212.585 221.887 212.504 221.862C211.124 221.444 212.747 219.643 213.154 218.628C213.553 217.631 214.267 216.736 214.623 215.965C214.957 215.242 215.41 214.267 215.738 213.086C215.853 212.675 215.956 212.343 215.93 212.232C215.711 211.299 214.819 213.872 214.381 214.67C213.901 215.545 213.24 216.232 212.506 217.33C212.343 217.575 212.153 217.661 212.097 217.636C211.402 217.321 212.962 215.584 214.264 213.885C216.057 211.547 217.149 210.754 218.128 209.494C219.364 207.902 220.304 207.298 220.931 206.692C221.596 206.049 222.314 205.049 222.97 204.224C223.747 203.247 224.383 202.468 225.064 201.645C225.866 200.675 226.668 199.943 227.863 198.793C228.673 198.014 229.601 196.875 230.313 196.021C230.995 195.201 231.562 194.676 232.243 193.936C233.107 192.996 234.173 192.098 235.016 191.275C235.861 190.449 236.294 190.011 236.839 189.327C237.574 188.404 238.578 187.871 239.69 186.861C240.231 186.37 241.012 185.527 241.455 185.189C241.898 184.85 241.952 185.013 241.98 185.315C242.129 186.931 241.411 188.249 241.03 189.019C240.485 190.122 240.268 191.268 240.186 192.091C240.097 192.977 239.942 193.846 239.751 194.779C239.52 195.912 239.56 199.308 239.723 201.474C239.756 201.924 239.887 203.385 239.806 205.224C239.78 205.818 239.564 205.704 239.346 205.513C238.43 204.707 238.203 203.95 237.93 203.29C237.657 202.632 237.385 202.137 237.223 201.836C237.14 201.681 236.953 201.589 236.789 201.587C236.059 201.58 235.485 202.462 234.832 203.257C233.416 204.982 232.763 206.412 232.274 207.208C231.862 207.881 231.677 208.717 231.349 209.376C230.969 210.143 229.833 211.126 228.822 212.119C228.166 212.763 227.219 213.326 226.294 214.203C225.198 215.242 224.445 215.795 223.736 216.317C222.944 216.901 222.161 217.661 221.479 218.265C220.856 218.815 220.148 219.525 219.359 220.076C218.705 220.533 218.082 221.118 217.185 221.693C215.533 222.752 214.927 223.367 214.273 223.862C213.586 224.383 212.159 225.338 210.848 226.302C209.847 227.039 208.515 227.972 207.286 229.045C206.87 229.409 206.279 229.786 205.844 230.09C205 230.678 206.384 228.311 207.142 226.833C207.626 225.89 208.771 224.858 210.154 223.463C212.832 220.763 214.049 218.932 214.893 217.914C216.524 215.948 219.43 212.95 220.467 212.07C222.107 210.678 223.727 209.931 224.683 209.38C225.449 208.937 226.07 208.229 226.668 207.597C227.221 207.013 227.973 206.692 228.843 205.815C229.038 205.619 229.063 205.431 229.01 205.374C228.61 204.946 227.601 206.247 225.645 207.726C224.777 208.382 224.334 209.046 223.087 210.087C221.66 211.278 220.856 212.117 218.957 213.679C216.889 215.379 215.961 215.851 215.198 216.344C214.244 216.962 213.298 217.441 212.209 218.045C210.245 219.134 209.435 219.581 208.32 220.24C207.491 220.73 206.876 221.227 206.278 221.585C205.552 222.021 204.811 222.708 204.157 223.34C203.556 223.922 202.961 224.627 202.119 225.616C201.502 226.34 200.84 226.988 200.242 227.647C199.643 228.307 199.1 228.854 198.014 229.868C197.144 230.678 196.327 231.159 195.457 231.844C194.226 232.813 193.553 233.572 192.764 234.068C192.052 234.515 191.216 235.435 190.317 236.07C189.491 236.652 188.55 237.575 187.409 238.646C185.87 240.09 184.801 241.085 183.683 242.076C181.73 243.808 181.045 244.545 180.445 245.287C179.727 246.175 178.438 247.175 177.075 248.276C175.839 249.276 174.901 249.977 174.109 250.665C173.394 251.287 172.561 251.843 171.825 252.366C170.808 253.089 169.839 253.983 169.241 254.615C168.399 255.506 166.85 256.561 165.844 257.386C165.005 258.073 163.969 258.865 162.881 259.853C161.242 261.34 160.001 262.266 158.34 263.857C157.29 264.862 156.189 266.055 154.697 267.533C153.66 268.558 153.197 269.292 152.464 270.251C151.78 271.146 150.861 271.978 150.152 272.913C149.49 273.786 148.847 274.559 148.357 275.327C147.48 276.7 145.865 278.062 144.876 279.223C143.996 280.257 141.091 282.664 139.221 283.97C138.001 284.822 136.558 286.137 135.767 286.714C135.024 287.254 134.111 287.727 133.184 288.25C132.725 288.509 132.044 289.207 131.202 290.029C130.659 290.559 129.169 291.943 127.212 293.89C125.982 295.114 124.22 296.936 123.094 297.825C122.443 298.34 121.763 298.977 120.947 299.58C120.137 300.179 119.211 301.331 118.2 302.159C117.33 302.873 115.622 304.076 114.584 304.847C113.558 305.61 112.626 306.549 111.837 307.152C111.114 307.705 110.505 308.412 109.987 309.1C109.475 309.78 108.71 310.552 107.407 311.95C106.626 312.788 104.589 314.766 103.352 315.931C102.646 316.596 102.184 317.413 101.828 318.016C101.411 318.724 100.879 319.605 100.442 320.375C99.8291 321.456 99.2455 321.748 99.0815 321.886C98.5221 322.355 100.98 321.258 102.257 320.818C103.344 320.444 104.406 319.941 105.331 319.611C106.548 319.177 107.451 318.351 110.409 316.052C111.694 315.054 112.779 314.074 113.626 312.892C114.437 311.761 114.796 310.944 115.15 310.203C115.718 309.015 116.265 308.31 117.106 307.377C117.822 306.585 118.549 305.676 119.418 304.771C120.023 304.14 121.26 302.993 122.22 302.327C122.901 301.854 123.551 301.067 124.313 300.408C124.986 299.826 125.672 299.092 126.353 298.569C127.188 297.927 128.172 297.173 129.045 296.457C129.674 295.942 130.241 295.306 130.786 294.674C131.082 294.331 132.14 293.717 133.74 292.486C136.933 290.028 138.722 288.886 139.433 288.227C140.179 287.536 141.44 286.641 142.992 285.485C143.792 284.889 144.436 284.442 145.143 283.892C146.213 283.06 147.046 282.246 147.753 281.479C148.568 280.596 149.167 280.106 149.794 279.476C150.644 278.62 152.368 276.659 153.653 275.444C154.85 274.311 155.53 274.016 156.211 273.413C157.038 272.679 158.353 271.606 159.582 270.369C160.375 269.57 161.508 268.752 162.248 267.981C162.879 267.324 163.688 266.829 164.774 265.925C166.284 264.667 167.167 264.031 168.337 262.989C169.019 262.382 170.208 261.074 171.167 259.971C172.246 258.728 173.527 257.944 175.406 256.133C176.425 255.15 177.554 253.776 178.753 252.427C179.36 251.744 180.004 251.192 180.549 250.396C181.606 248.853 183.649 247.241 184.626 246.172C185.659 245.043 188.205 242.695 189.468 241.671C190.221 241.061 191.585 240.383 192.567 239.805C193.467 239.275 194.199 238.79 195.203 238.188C197.106 237.046 197.788 236.377 198.577 235.909C199.219 235.528 200.233 235.06 201.16 234.565C202.348 233.93 203.28 233.414 203.989 232.919C204.643 232.479 205.132 232.096 205.458 231.794C205.622 231.656 205.783 231.547 206.276 231.106" stroke="black" stroke-width="10" stroke-linecap="round"/>
<path d="M59.8898 239.959C60.3655 239.529 61.4772 238.809 62.7538 238.197C64.0314 237.583 64.6663 236.648 65.3859 235.856C65.7497 235.456 66.1031 235.062 66.5406 234.739C66.978 234.416 67.0618 233.483 66.9829 232.617C66.9139 231.86 65.5509 234.12 63.2857 236.277C61.3622 238.108 59.0196 240.171 58.1793 241C57.3044 241.864 55.8352 243.408 54.5945 244.494C53.505 245.447 52.0867 246.005 51.0085 246.691C49.8403 247.435 48.8975 248.023 47.7811 248.995C46.9038 249.758 45.8709 250.686 44.6338 251.41C43.602 252.013 42.6818 252.92 41.606 253.462C40.028 254.258 38.938 254.58 38.136 254.941C37.405 255.269 39.8035 254.152 40.9988 253.61C42.2057 253.064 43.8628 252.639 45.3414 252.098C46.0646 251.833 48.001 251.273 50.5088 250.373C51.9468 249.857 54.9244 248.901 58.7877 247.281C61.6369 246.087 63.6288 244.933 65.2628 244.283C66.3754 243.84 67.296 243.347 68.4914 242.77C70.1075 241.99 72.8615 239.397 74.5087 238.197C75.6208 237.386 76.6196 236.722 77.5771 236.215C78.6523 235.646 79.4884 234.777 80.6443 234.126C81.7813 233.487 82.8353 232.543 83.7928 232.001C84.7156 231.48 85.7041 230.814 86.6616 230.272C87.6157 229.733 89.1276 229.301 90.446 228.904C91.58 228.562 92.7948 228.29 94.3093 227.895C95.7337 227.525 97.0167 227.283 98.1368 226.994C99.3734 226.676 100.765 225.844 101.841 225.41C103.473 224.753 105.379 224.046 106.981 223.107C108.281 222.345 109.687 221.453 110.886 220.872C112.301 220.188 113.594 219.793 114.672 219.216C115.778 218.624 116.94 218.423 118.494 217.92C120.123 217.392 121.244 217.126 122.322 216.802C123.594 216.42 125.303 215.903 127.458 215.183C128.987 214.671 130.328 214.749 131.485 214.317C132.931 213.777 133.995 213.885 135.35 213.597C136.481 213.356 137.739 212.878 139.413 212.337C140.686 211.925 141.803 211.508 143.08 211.399C144.381 211.288 145.944 210.86 147.185 210.571C148.404 210.288 149.693 210.069 150.969 209.707C152.209 209.356 153.518 209.347 155.389 208.915C156.829 208.583 158.457 208.483 159.933 208.338C161.839 208.151 162.922 207.835 163.959 207.546C165.291 207.175 166.427 207.113 167.466 206.898C168.503 206.683 169.616 206.395 170.574 205.818C171.051 205.531 171.689 205.027 171.892 204.594C172.781 202.699 167.957 205.885 165.373 206.533C161.82 207.422 158.397 208.692 156.486 209.52C154.726 210.282 152.973 210.855 151.537 211.432C150.073 212.021 147.245 212.943 145.52 213.558C144.393 213.959 142.932 214.313 141.417 214.675C139.975 215.02 138.868 215.467 137.353 215.827C135.799 216.196 134.804 216.763 133.409 217.267C131.638 217.906 130.343 218.276 128.827 218.672C126.514 219.275 125.241 220.221 122.416 221.406C121.033 221.987 119.9 222.382 118.468 223.207C115.981 224.641 114.483 225.26 112.175 226.484C110.599 227.32 108.516 227.996 106.832 228.72C105.144 229.445 103.648 229.872 102.13 230.628C100.611 231.385 99.4217 231.816 98.383 232.214C97.3802 232.598 96.4717 233.113 94.9189 233.69C93.3051 234.29 90.8201 235.274 89.1025 235.887C86.8475 236.691 85.0826 237.219 83.4031 237.939C82.8541 238.175 82.3644 238.301 81.9269 238.267C80.7698 238.175 81.0089 236.506 80.7292 234.461C80.3265 231.519 80.4519 229.515 79.8171 229.407C78.0103 229.099 76.2371 230.088 74.0425 231.023C72.0907 231.856 70.4135 232.249 69.5743 232.968C69.3273 233.18 69.4524 233.684 69.768 233.904C71.6016 234.053 72.7133 233.766 73.752 233.441C73.9923 233.333 74.229 233.191 74.4728 232.828" stroke="black" stroke-width="10" stroke-linecap="round"/>
<path d="M201.17 111.596C200.61 111.87 199.672 113.158 198.548 114.591C196.801 116.816 195.545 117.78 194.511 118.521C194.357 118.631 194.228 118.251 194.226 117.972C194.22 116.716 195.348 114.749 196.1 113.262C196.704 112.068 198.344 110.498 199.478 109.106C200.314 108.081 201.446 107.351 203.087 105.875C204.45 104.651 205.483 103.843 206.469 102.918C208.612 100.904 211.3 97.4702 212.24 96.3148C213.465 94.8099 215.703 93.1367 217.026 91.6502C218.426 90.0769 220.309 88.7866 221.483 88.0011C222.861 87.0789 223.687 86.0159 224.814 85.0004C225.943 83.9836 227.065 83.0622 228.006 81.9983C229.048 80.8183 230.815 79.6487 232.227 78.4891C233.936 77.0855 234.948 75.6754 236.402 73.9201C237.854 72.1676 240.004 70.0507 242.266 68.1001C244.023 66.5859 245.365 65.5122 246.259 64.5425C247.376 63.3306 249.025 61.8216 250.152 60.8476C251.278 59.8749 252.403 58.9566 253.297 57.8926C254.236 56.7749 255.595 55.9088 257.141 54.2934C258.555 52.8157 259.723 51.9355 261.551 50.2758C262.715 49.2197 263.76 48.4277 264.977 47.3651C267.191 45.4338 268.45 44.2716 269.811 43.0233C270.7 42.2081 271.547 41.4066 272.721 40.3911C274.246 39.0719 275.956 37.6217 277.225 36.742C278.601 35.7889 279.711 35.0338 280.885 34.2483C282.384 33.2456 284.024 31.7145 285.811 30.0021C286.897 28.9612 287.971 28.2011 289.471 26.6772C290.564 25.5653 291.538 24.9649 292.054 24.825C292.566 24.6859 292.667 28.8079 292.714 34.071C292.758 39.0732 293.135 44.8146 293.464 46.5644C293.634 47.4687 293.512 49.0373 293.373 49.7009C293.233 50.3645 292.954 50.0902 292.811 49.766C292.106 48.1734 292.104 43.2852 292.338 40.211C292.605 36.7034 292.853 34.6736 293.229 33.0957C293.604 31.523 293.979 30.4178 294.355 29.3081C294.731 28.1984 295.105 27.0928 295.481 25.9831C295.877 24.8134 295.95 23.4908 295.999 22.1955C296.042 21.0693 294.362 25.048 292.535 27.9975C290.334 31.5499 289.013 33.0832 287.746 34.9757C286.074 37.4731 285.072 38.9018 283.71 40.6114C282.43 42.22 281.316 43.7063 280.377 45.276C279.588 46.5947 278.968 48.3224 278.125 49.802C277.339 51.1804 276.626 52.9385 274.844 54.9265C273.672 56.2333 272.589 57.5601 272.071 58.7155C271.451 60.0965 270.804 60.8878 270.708 61.212C270.174 63.0215 274.176 58.1254 275.863 56.7857C277.08 55.8189 278.304 54.9833 279.197 54.0136C280.139 52.9925 281.215 52.0297 282.339 51.0585C283.963 49.6564 284.593 48.4277 285.766 46.1224C286.212 45.2452 286.285 44.5459 286.472 44.3131C288.244 42.1103 286.569 51.7415 286.147 52.8512C285.681 54.0763 284.694 55.0665 283.663 55.9462C282.575 56.8734 281.226 57.743 280.003 58.6712C278.93 59.4855 277.752 60.148 276.624 60.9335C275.401 61.7855 274.373 62.6417 272.311 64.4857C271.092 65.5759 269.587 66.2437 268.46 66.9378C267.442 67.5645 266.491 68.2774 265.41 68.9688C264.283 69.6892 263.861 71.1369 262.829 71.7866C261.593 72.5649 260.579 73.2648 259.451 73.6804C258.206 74.1393 257.2 75.1101 256.073 75.8499C254.945 76.5897 253.822 77.1439 252.694 77.7895C251.523 78.4601 250.443 79.2663 249.316 79.9604C248.264 80.6076 247.065 81.2058 245.75 81.9913C244.641 82.6539 243.501 83.6053 241.998 84.485C240.471 85.3784 239.464 86.2874 238.29 87.0244C236.747 87.9931 235.804 88.964 234.396 90.0252C232.839 91.1989 231.863 92.106 230.501 93.2115C229.384 94.1192 228.203 94.9654 227.122 95.8451C226.096 96.6795 225.292 97.7362 224.26 98.5702C223.113 99.4973 220.613 101.604 218.864 103.049C217.533 104.149 216.378 105.034 215.251 105.774C214.079 106.543 213 107.711 211.873 108.361C210.606 109.09 209.064 110.387 206.949 112.236C205.624 113.392 204.087 114.821 202.583 115.979C201.39 116.898 200.613 117.78 199.719 118.795C198.525 120.152 196.953 121.382 195.872 121.663C195.627 121.727 195.449 121.299 195.493 120.975C195.694 119.479 196.942 118.162 199.191 115.714C200.422 114.375 202.285 112.715 203.933 111.553C205.181 110.673 206.232 109.662 207.593 108.506C209.452 106.928 211.114 104.674 212.239 103.612C214.372 101.596 216.086 100.147 218.38 98.6256C220.882 96.9669 222.465 95.9906 223.642 94.9294C225.416 93.3297 227.533 90.6375 228.756 89.4793C229.792 88.4982 230.821 87.4955 231.76 86.3858C232.567 85.4321 233.073 83.9877 234.339 82.2781C235.485 80.7299 236.637 79.4602 237.811 78.5348C239.494 77.2082 241.789 74.6668 243.394 72.8575C245.514 70.4677 246.772 69.6684 247.9 68.8829C249.123 68.0309 250.894 66.6261 252.918 65.2823C254.58 64.179 256.339 62.5641 258.034 61.1718C259.42 60.033 260.753 59.1395 263.612 56.5599C265.116 55.2029 266.665 53.7864 270.505 50.007C272.348 48.193 273.703 47.1365 274.927 46.0241C275.389 45.604 276.147 45.2857 276.71 45.0058C278.13 44.3001 275.967 47.8625 275.122 49.3393C273.631 51.9477 271.558 54.2352 270.197 56.0348C269.2 57.3529 267.808 58.7571 266.536 59.8252C265.424 60.7588 263.867 62.3591 262.782 63.5658C262.046 64.3834 260.956 65.3183 259.733 66.6122C258.643 67.7644 257.014 68.9203 255.745 69.8C254.216 70.8589 252.791 72.2452 251.755 73.3549C250.495 74.705 248.85 75.8472 247.58 76.9111C245.946 78.2804 243.783 80.1862 241.578 81.85C240.009 83.0345 238.715 83.9766 237.258 85.1306C236.252 85.9278 235.241 86.5645 234.113 87.44C232.984 88.3167 231.863 89.0582 230.735 89.9337C229.59 90.8232 228.017 91.6405 226.56 92.7045C225.21 93.69 223.698 94.5997 222.337 95.6595C221.099 96.623 218.546 98.1019 216.239 99.8143C214.641 101 213 102.541 211.592 103.602C210.086 104.738 208.687 106.32 207.415 107.482C206.343 108.461 204.746 110.016 203.427 111.039C202.275 111.932 200.618 113.801 197.568 116.757C195.647 118.619 193.293 120.551 191.745 122.026C190.572 123.144 188.608 125.067 187.098 126.278C186.062 127.108 185.314 128.215 184.283 129.094C182.904 130.27 181.469 131.634 180.295 132.649C178.912 133.845 177.527 134.682 176.4 135.606C175.431 136.4 174.149 136.898 173.021 137.822C171.822 138.805 170.208 139.946 168.894 140.914C166.632 142.582 165.703 143.548 164.342 144.793C163.172 145.864 162.043 146.596 160.916 147.566C159.817 148.51 158.198 149.455 156.974 150.383C155.901 151.198 154.538 152.043 153.034 153.153C151.59 154.219 149.943 155.551 148.482 156.525C146.874 157.597 145.433 158.604 144.352 159.296C143.236 160.009 142.336 161.004 140.928 162.019C139.413 163.113 137.742 164.417 136.376 165.346C134.74 166.458 132.86 167.931 131.637 168.9C130.517 169.788 129.386 170.701 128.212 171.303C126.616 172.12 125.168 173.927 123.8 175.089C122.793 175.945 121.97 176.98 120.473 178.548C118.196 180.932 116.813 181.967 114.888 183.721C113.727 184.78 112.494 185.569 111.366 186.403C110.283 187.205 108.93 188.246 107.707 189.174C106.591 190.021 105.642 191.111 104.61 191.945C103.521 192.825 102.359 193.699 100.764 195.128C99.6434 196.133 98.4175 196.747 97.3364 197.532C97.0682 197.727 96.9142 198.038 97.0507 197.996C98.7764 197.471 99.6281 195.832 100.706 194.953C101.989 193.906 103.097 192.967 104.6 191.952C106.042 190.978 107.319 190.197 109.01 188.767C110.258 187.711 111.824 186.689 113.374 185.488C115.898 183.531 117.928 180.87 118.959 179.715C120.08 178.459 120.839 177.545 121.775 176.39C123.05 174.816 124.679 172.381 125.998 171.078C127.22 169.871 128.434 168.862 130.125 167.432C131.417 166.339 132.753 165.26 134.253 163.739C136.519 161.441 139.51 160.178 140.871 159.303C142.646 158.161 144.954 156.764 145.94 156.115C148.057 154.719 151.238 152.237 152.601 151.452C154.397 150.416 155.743 149.743 157.758 148.269C162.063 145.122 166.249 141.62 167.991 140.37C170.034 138.903 171.79 137.092 173.293 135.661C175.224 133.823 177.049 132.105 179.67 129.385C180.935 128.072 181.649 127.117 182.492 126.008C183.322 124.915 184.459 123.332 185.915 121.439C187.04 119.977 188.496 118.622 189.903 117.097C191.314 115.477 192.437 114.555 193.565 113.585C193.848 113.352 194.126 113.169 194.413 112.704" stroke="black" stroke-width="10" stroke-linecap="round"/>
<path d="M298.274 424.344C298.003 424.811 296.73 425.932 294.858 427.343C293.66 428.246 292.529 428.939 291.205 429.737C289.866 430.544 288.97 431.569 287.873 432.037C286.607 432.579 285.684 433.258 284.315 433.867C283 434.453 281.85 434.851 280.754 435.323C279.581 435.827 278.291 436.355 277.194 436.777C276.026 437.227 275.005 437.763 273.908 438.372C272.878 438.945 271.719 439.356 270.622 439.828C269.556 440.286 268.433 440.578 267.292 440.954C265.899 441.412 264.419 441.89 262.957 442.362C261.578 442.807 260.493 443.394 259.169 443.816C257.938 444.208 256.933 444.801 255.836 445.224C254.668 445.673 253.647 446.395 252.551 447.147C252.275 447.335 252.004 447.521 252 447.663C251.968 448.791 255.635 446.873 259.696 445.045C262.387 443.833 263.674 443.118 266.27 442.134C270.207 440.641 271.703 439.553 273.305 438.754C275.847 437.485 276.911 436.361 278.462 435.188C279.731 434.229 281.834 433.263 284.482 431.531C286.608 430.139 289.041 428.579 291.103 427.397C292.556 426.565 293.794 425.943 295.256 425.472C296.636 425.027 298.263 424.254 300.453 423.457C304.791 421.88 305.661 420.594 307.03 420.076C308.925 419.359 310.864 418.246 312.549 417.17C315.56 415.249 316.888 414.586 318.075 413.883C319.618 412.97 321.263 412.057 322.685 411.348C324.173 410.605 325.65 409.895 327.019 408.91C328.412 407.907 329.938 407.08 331.355 406.374C331.927 406.09 332.498 405.858 332.819 405.716C333.734 405.309 331.05 408.099 329.359 409.511C327.399 411.148 326.389 411.579 325.797 411.721C325.567 411.776 325.475 411.399 325.473 411.116C325.467 409.773 327.293 408.769 328.435 408.251C329.911 407.581 332.391 405.959 334.185 405.107C336.445 404.034 339.067 402.293 340.48 401.636C343.2 400.37 344.812 399.388 346.415 397.977C347.774 396.781 349.472 395.536 351.338 394.226C355.229 391.493 358.311 390.288 360.197 389.387C361.917 388.566 363.711 387.371 364.852 386.853C366.217 386.234 367.27 385.586 368.412 384.93C369.733 384.171 371.01 383.43 372.427 382.491C373.595 381.717 374.937 381.082 376.034 380.426C377.2 379.728 378.677 379.021 380.094 378.407C381.282 377.893 382.33 377.236 383.835 376.391C385.882 375.242 386.985 374.702 389.036 373.904C390.667 373.269 392.001 372.449 393.329 371.698C394.619 370.968 395.928 370.479 397.39 369.54C398.744 368.67 401.393 367.387 404.278 365.881C405.784 365.095 406.974 364.003 408.343 363.251C409.685 362.514 410.533 361.655 411.63 361.232C412.913 360.738 414.093 359.594 415.189 358.98C416.325 358.345 417.379 357.713 418.748 357.057C420.157 356.382 421.212 355.557 422.309 355.085C423.482 354.58 424.772 353.867 427.232 352.882C429.343 352.036 431.798 350.674 433.26 349.831C434.549 349.088 435.724 348.704 436.866 348.235C438.315 347.64 439.284 346.829 441.971 345.422C443.362 344.694 444.486 344.013 445.855 343.449C447.34 342.836 448.32 342.042 449.416 341.291C450.513 340.539 451.606 339.604 452.747 338.99C454.178 338.221 455.62 337.256 456.81 336.317C457.782 335.549 458.999 335.004 460.095 334.486C461.229 333.95 462.284 333.314 463.608 332.796C464.888 332.296 466.118 331.625 467.442 330.92C468.551 330.329 469.678 329.84 470.774 329.23C471.871 328.621 473.144 327.683 474.334 326.978C475.379 326.359 476.704 325.713 477.893 324.961C479.016 324.251 479.902 323.46 480.54 323.036C480.776 322.88 480.997 323.263 481 323.546C481.015 325.06 479.907 326.827 479.634 335.156C479.58 336.793 479.091 336.783 478.77 336.69C477.421 336.301 475.986 336.034 473.526 335.985C472.091 335.956 470.877 336.969 469.233 337.812C467.952 338.469 465.592 339.779 463.482 340.909C462.141 341.628 460.653 342.504 459.42 343.302C457.67 344.436 456.365 345.505 455.175 346.166C453.682 346.994 452.164 348.135 449.432 349.634C447.437 350.728 445.866 351.795 444.77 352.313C443.564 352.883 442.307 353.484 440.528 354.423C440.114 354.613 439.842 354.706 439.567 354.801C439.292 354.895 439.021 354.988 438.194 355.647" stroke="black" stroke-width="10" stroke-linecap="round"/>
<path d="M230.355 383.364C229.89 383.796 229.195 385.539 228.551 387.288C228.214 388.204 227.792 389.038 227.733 389.477C227.512 391.108 229.299 386.282 230.119 384.753C231.015 383.083 232.215 381.625 233.149 379.876C234.049 378.19 234.663 376.384 235.887 374.634C237.016 373.019 238.502 370.565 240.025 368.519C240.996 367.214 242.467 365.9 243.928 364.513C245.244 363.265 246.893 360.956 248.241 358.909C249.577 356.881 251.096 354.98 252.029 353.231C252.929 351.545 253.082 350.027 252.967 349.369C252.676 347.717 250.641 352.053 249.299 353.654C248.015 355.185 245.753 357.575 243.649 359.842C241.619 362.028 239.46 365.437 237.761 367.27C236.444 368.69 234.796 371.264 233.506 373.311C232.464 374.962 231.873 376.803 231.696 378.552C231.509 380.405 230.474 382.045 230.007 383.794C229.528 385.591 228.726 387.286 228.144 389.036C227.444 391.138 226.048 392.528 224.882 393.915C223.786 395.218 223.251 397.333 222.317 399.082C221.347 400.901 220.104 402.574 218.88 404.324C217.751 405.939 216.726 407.816 215.559 409.638C214.138 411.854 212.88 413.495 211.828 415.244C210.817 416.925 209.734 418.448 208.162 420.625C204.706 425.414 203.209 427.324 201.748 429.222C200.571 430.75 199.475 432.277 198.542 434.027C197.608 435.776 196.447 437.519 195.743 439.268C195.061 440.961 194 443.049 192.947 444.947C191.951 446.744 190.965 448.439 189.918 449.826C189.101 451.501 188.168 452.812 187.703 453.683C187.469 454.122 187.238 454.554 187 455" stroke="black" stroke-width="10" stroke-linecap="round"/>
<path d="M247 447C246.084 447.311 244.246 448.252 242.402 448.88C240.557 449.508 238.72 450.134 236.875 450.762C234.98 451.408 233.193 452.487 231.273 453.038C229.116 453.656 227.207 454.209 225.362 455.466C223.518 456.722 221.984 458.285 220.296 459.311C218.493 460.406 216.614 461.268 214.388 462.447C212.573 463.408 210.628 464.092 208.783 464.88C207.029 465.63 205.101 465.974 203.257 466.84C201.163 467.823 199.114 468.958 195.359 470.68C193.243 471.65 191.286 472.252 189.441 472.88C187.546 473.525 185.759 474.605 183.915 475.155C182.07 475.546 180.233 476.798 178.388 477.976C177.926 478.214 177.47 478.369 177 479" stroke="black" stroke-width="10" stroke-linecap="round"/>
<path d="M305.809 414.415C306.141 414.333 306.809 414.002 307.414 413.774C308.052 413.533 308.936 412.968 309.67 412.469C310.211 412.101 310.819 411.723 311.341 411.31C311.654 411.062 311.948 410.894 312.074 410.852C312.514 410.707 310.992 411.554 309.992 412.339C307.887 413.993 307.189 413.958 306.439 414.33C304.629 415.228 304.099 415.655 303.451 416.215C302.861 416.724 301.803 417.395 301.049 417.893C300.344 418.358 299.671 418.763 299.044 419.281C298.396 419.817 298.042 420.296 297.332 420.938C296.747 421.466 295.623 422.24 294.7 422.824C294.07 423.222 293.197 423.57 292.486 423.963C291.578 424.465 290.773 424.771 290.105 425.04C289.211 425.402 288.768 425.765 287.643 426.138C286.433 426.539 285.803 426.884 284.947 427.216C284.616 427.344 284.257 427.547 283.343 427.918C281.575 428.635 279.709 429.616 278.415 430.278C277.296 430.851 276.613 431.152 276.007 431.503C275.538 431.776 274.984 431.897 273.838 432.393C272.086 433.151 271.6 433.347 270.787 433.596C269.493 433.992 268.51 434.465 267.841 434.9C267.219 435.304 266.713 435.708 266.107 436.143C265.575 436.525 265.208 436.869 265.082 436.952C264.639 437.245 265.999 436.167 268.958 434.381C271.741 432.701 277.169 429.519 281.697 427.05C286.224 424.582 289.698 422.941 293.059 421.153C296.42 419.364 299.563 417.477 301.389 416.424C303.596 415.149 304.344 414.831 305.568 414.234C307.981 413.055 310.065 412.511 310.733 412.242C311.55 411.912 312.154 411.723 312.906 411.289C313.934 410.696 314.535 410.316 315.184 409.715C315.897 409.054 316.834 408.491 317.522 408.099C318.335 407.636 319.048 407.207 319.506 406.898C320.08 406.51 321.503 405.515 323.361 404.438C324.582 403.73 325.726 403.274 326.816 402.651C327.483 402.27 328.069 401.946 329.987 400.872C331.651 399.939 333.709 398.633 334.294 398.341C335.014 397.984 335.754 397.556 336.508 397.161C337.215 396.79 338.26 396.478 338.91 396.352C339.54 396.231 340.1 396.063 340.665 395.959C340.753 395.943 340.689 395.774 340.75 395.629C341.214 394.53 343.608 395.068 344.278 395.005C344.952 394.942 345.696 394.738 347.469 394.199C348.703 393.825 350.37 393.249 351.316 392.873C352.2 392.521 353.421 391.881 355.072 391.134C355.986 390.721 356.684 390.345 357.515 389.995C359.042 389.352 360.234 388.729 361.396 388.298C362.278 387.97 363.716 387.332 364.607 386.975C365.497 386.617 365.787 386.535 368.065 385.713C370.344 384.891 374.604 383.333 379.403 381.34C384.203 379.348 389.413 376.969 392.304 375.621C395.195 374.272 395.609 374.026 397.29 373.243C398.971 372.46 401.907 371.148 404.847 370C407.786 368.852 410.639 367.909 413.412 366.787C416.184 365.665 418.79 364.394 420.214 363.677C422.339 362.609 423.308 361.968 424.082 361.47C424.743 361.044 425.023 360.476 425.461 360.081C425.681 359.884 425.859 359.605 425.985 359.377C426.093 359.183 425.611 359.065 425.257 359.003C424.697 358.982 424.232 359.064 423.982 359.209C423.856 359.272 423.732 359.313 423.604 359.355" stroke="black" stroke-width="10" stroke-linecap="round"/>
<path d="M190.805 465.279C190.828 465.241 190.917 465.165 190.951 465.058C190.959 465.032 190.984 465.014 190.984 465.013C191.073 464.938 190.761 465.203 190.627 465.342C190.543 465.428 190.493 465.544 190.459 465.645C190.381 465.753 190.247 465.829 190.179 465.905C190.157 465.924 190.113 465.943 190 466" stroke="black" stroke-linecap="round"/>
<path d="M474.934 155.019C474.843 155.34 474.568 155.984 474.088 156.309C473.386 156.783 472.374 157.594 471.75 158.359C471.189 159.048 470.493 159.901 469.666 160.366C469.462 160.481 469.164 160.413 468.956 160.322C468.197 159.989 467.924 158.897 467.031 157.445C466.408 156.432 466.181 155.76 466.02 155.022C465.941 154.662 466.042 154.329 466.201 154.03C466.813 152.884 468.375 151.979 469.019 151.678C469.679 151.369 470.484 151.055 472.36 150.182C473.443 149.678 474.243 148.89 474.817 148.497C475.632 147.94 476.353 147.277 477.13 146.7C477.962 146.083 478.597 145.617 479.194 145.201C479.718 144.836 480.384 144.42 480.981 143.956C481.506 143.55 482.081 143.219 482.609 143.032C483.436 142.74 482.727 144.505 482.519 145.197C482.306 145.907 482.086 147.219 481.923 148.469C481.791 149.487 481.58 150.591 481.511 151.833C481.464 152.672 481.305 153.678 481.236 155.496C481.221 155.894 481.168 156.076 481.144 157.607C481.121 159.139 481.121 162.014 481.144 163.564C481.168 165.252 481.259 167.126 481.236 169.822C481.224 171.254 480.893 171.889 480.436 172.535C480.051 173.078 479.246 173.181 478.58 173.458C478.091 173.662 477.231 174.011 475.884 174.402C474.23 174.881 472.649 175.347 471.459 175.922C469.495 176.871 468.612 177.745 468.061 178.091C467.496 178.447 466.733 178.943 465.657 179.748C464.83 180.368 464.348 180.973 464.164 180.997C463.493 181.086 465.028 179.048 466.082 176.608C466.595 175.421 467.446 173.408 468.003 171.985C468.855 169.813 469.112 168.44 469.25 167.291C469.497 165.222 469.434 163.835 469.661 162.515C469.925 160.987 470.669 160.463 471.447 159.678C471.913 159.209 472.457 159.215 472.709 159.145C472.822 159.114 472.915 159.304 472.962 159.534C473.072 160.075 472.873 161.326 472.53 163.234C471.919 166.64 471.224 168.147 470.97 169.445C470.916 169.718 470.946 170.042 471.014 170.229C471.319 171.068 473.234 170.418 473.946 170.118C474.618 169.836 475.343 169.45 475.78 169.013C476.241 168.552 476.9 167.657 477.521 166.456C477.877 165.768 477.959 165.027 478.187 163.829C478.274 163.373 478.279 162.996 478.348 161.898C478.371 159.34 478.326 157.419 478.257 156.114C478.234 155.038 478.234 153.122 478.096 151.008" stroke="black" stroke-width="8" stroke-linecap="round"/>
<line y1="-0.5" x2="23.5739" y2="-0.5" transform="matrix(0.90557 -0.424198 0.435712 0.900086 121.988 348)" stroke="black"/>
<line x1="193.803" y1="468.46" x2="186.803" y2="465.46" stroke="black"/>
<line x1="180.646" y1="476.646" x2="191.646" y2="465.646" stroke="black"/>
</svg>
